<svg version="1.1" xmlns:xlink="http://www.w3.org/1999/xlink" xmlns="http://www.w3.org/2000/svg" width="403" height="63" viewbox="0 0 403 63"><defs><style type="text/css">.c{fill:none;stroke:#222222;}.i{fill:#000000;font-family:Dialog,Sans-serif;font-size:12px;}.l{fill:#90d9ff;stroke:#222222;}.r{fill:#d3f0ff;stroke:#222222;}</style></defs><path class="c" d="M0 21h25m80 0h20m-115 0q5 0 5 5v19q0 5 5 5h5m80 0h5q5 0 5-5v-19q0-5 5-5m5 0h10m83 0h10m80 0h10m80 0h5"/><rect class="r" x="25" y="5" width="80" height="24"/><text class="i" x="35" y="21">AFO280/1</text><rect class="r" x="25" y="34" width="80" height="24"/><text class="i" x="35" y="50">AFO280/2</text><rect class="l" x="135" y="5" width="83" height="24" rx="7"/><text class="i" x="145" y="21">Puffer(10)</text><rect class="r" x="228" y="5" width="80" height="24"/><text class="i" x="238" y="21">AFO300/1</text><rect class="r" x="318" y="5" width="80" height="24"/><text class="i" x="328" y="21">AFO400/1</text></svg>